{
  "accessors": [
    {
      "bufferView": 2,
      "componentType": 5126,
      "count": 27014,
      "max": [
        864.3558349609375,
        273.28509521484375,
        405.2550354003906
      ],
      "min": [
        -864.3558349609375,
        -1379.392333984375,
        -141.08346557617188
      ],
      "type": "VEC3"
    },
    {
      "bufferView": 2,
      "byteOffset": 324168,
      "componentType": 5126,
      "count": 27014,
      "max": [
        0.9998393058776855,
        0.9999799728393555,
        0.999999463558197
      ],
      "min": [
        -0.9998393654823303,
        -1.0,
        -1.0
      ],
      "type": "VEC3"
    },
    {
      "bufferView": 1,
      "componentType": 5126,
      "count": 27014,
      "max": [
        0.9972270727157593,
        0.9979907870292664
      ],
      "min": [
        0.001953125,
        0.0020093254279345274
      ],
      "type": "VEC2"
    },
    {
      "bufferView": 1,
      "byteOffset": 216112,
      "componentType": 5126,
      "count": 27014,
      "max": [
        0.9972270727157593,
        0.9979907870292664
      ],
      "min": [
        0.001953125,
        0.0020093254279345274
      ],
      "type": "VEC2"
    },
    {
      "bufferView": 1,
      "byteOffset": 432224,
      "componentType": 5126,
      "count": 27014,
      "max": [
        0.9972270727157593,
        0.9979907870292664
      ],
      "min": [
        0.001953125,
        0.0020093254279345274
      ],
      "type": "VEC2"
    },
    {
      "bufferView": 1,
      "byteOffset": 648336,
      "componentType": 5126,
      "count": 27014,
      "max": [
        0.9972270727157593,
        0.9979907870292664
      ],
      "min": [
        0.001953125,
        0.0020093254279345274
      ],
      "type": "VEC2"
    },
    {
      "bufferView": 0,
      "componentType": 5125,
      "count": 144912,
      "type": "SCALAR"
    },
    {
      "bufferView": 2,
      "byteOffset": 648336,
      "componentType": 5126,
      "count": 997,
      "max": [
        175.14413452148438,
        -752.5601196289063,
        235.44598388671875
      ],
      "min": [
        -175.14413452148438,
        -1335.1112060546875,
        40.111019134521484
      ],
      "type": "VEC3"
    },
    {
      "bufferView": 2,
      "byteOffset": 660300,
      "componentType": 5126,
      "count": 997,
      "max": [
        0.9944659471511841,
        0.7975176572799683,
        0.9926328063011169
      ],
      "min": [
        -0.9944659471511841,
        -0.9516502618789673,
        -0.6174365878105164
      ],
      "type": "VEC3"
    },
    {
      "bufferView": 1,
      "byteOffset": 864448,
      "componentType": 5126,
      "count": 997,
      "max": [
        0.9933980107307434,
        0.998046875
      ],
      "min": [
        0.008965149521827698,
        0.001953125
      ],
      "type": "VEC2"
    },
    {
      "bufferView": 1,
      "byteOffset": 872424,
      "componentType": 5126,
      "count": 997,
      "max": [
        0.9933980107307434,
        0.998046875
      ],
      "min": [
        0.008965149521827698,
        0.001953125
      ],
      "type": "VEC2"
    },
    {
      "bufferView": 1,
      "byteOffset": 880400,
      "componentType": 5126,
      "count": 997,
      "max": [
        0.9933980107307434,
        0.998046875
      ],
      "min": [
        0.008965149521827698,
        0.001953125
      ],
      "type": "VEC2"
    },
    {
      "bufferView": 0,
      "byteOffset": 579648,
      "componentType": 5125,
      "count": 4800,
      "type": "SCALAR"
    },
    {
      "bufferView": 2,
      "byteOffset": 672264,
      "componentType": 5126,
      "count": 789,
      "max": [
        585.0916748046875,
        222.79486083984375,
        112.53485870361328
      ],
      "min": [
        -585.0917358398438,
        200.4486541748047,
        54.361656188964844
      ],
      "type": "VEC3"
    },
    {
      "bufferView": 2,
      "byteOffset": 681732,
      "componentType": 5126,
      "count": 789,
      "max": [
        0.9976950883865356,
        1.0,
        0.9924176931381226
      ],
      "min": [
        -0.9976953268051147,
        -0.06783735752105713,
        -0.9930852055549622
      ],
      "type": "VEC3"
    },
    {
      "bufferView": 1,
      "byteOffset": 888376,
      "componentType": 5126,
      "count": 789,
      "max": [
        0.021951694041490555,
        0.423244446516037
      ],
      "min": [
        0.0025332928635179996,
        0.03902549296617508
      ],
      "type": "VEC2"
    },
    {
      "bufferView": 1,
      "byteOffset": 894688,
      "componentType": 5126,
      "count": 789,
      "max": [
        0.021951694041490555,
        0.423244446516037
      ],
      "min": [
        0.0025332928635179996,
        0.03902549296617508
      ],
      "type": "VEC2"
    },
    {
      "bufferView": 1,
      "byteOffset": 901000,
      "componentType": 5126,
      "count": 789,
      "max": [
        0.021951694041490555,
        0.423244446516037
      ],
      "min": [
        0.0025332928635179996,
        0.03902549296617508
      ],
      "type": "VEC2"
    },
    {
      "bufferView": 0,
      "byteOffset": 598848,
      "componentType": 5125,
      "count": 4416,
      "type": "SCALAR"
    },
    {
      "bufferView": 2,
      "byteOffset": 691200,
      "componentType": 5126,
      "count": 1538,
      "max": [
        752.74951171875,
        34.041725158691406,
        379.0742492675781
      ],
      "min": [
        -752.74951171875,
        -1337.370849609375,
        13.210062026977539
      ],
      "type": "VEC3"
    },
    {
      "bufferView": 2,
      "byteOffset": 709656,
      "componentType": 5126,
      "count": 1538,
      "max": [
        0.9976721405982971,
        0.12929359078407288,
        0.9999784827232361
      ],
      "min": [
        -0.9976722002029419,
        -0.9999658465385437,
        -0.9999979734420776
      ],
      "type": "VEC3"
    },
    {
      "bufferView": 1,
      "byteOffset": 907312,
      "componentType": 5126,
      "count": 1538,
      "max": [
        0.4319426417350769,
        0.7635446786880493
      ],
      "min": [
        0.031422894448041916,
        0.07610280811786652
      ],
      "type": "VEC2"
    },
    {
      "bufferView": 1,
      "byteOffset": 919616,
      "componentType": 5126,
      "count": 1538,
      "max": [
        0.4319426417350769,
        0.7635446786880493
      ],
      "min": [
        0.031422894448041916,
        0.07610280811786652
      ],
      "type": "VEC2"
    },
    {
      "bufferView": 1,
      "byteOffset": 931920,
      "componentType": 5126,
      "count": 1538,
      "max": [
        0.4319426417350769,
        0.7635446786880493
      ],
      "min": [
        0.031422894448041916,
        0.07610280811786652
      ],
      "type": "VEC2"
    },
    {
      "bufferView": 0,
      "byteOffset": 616512,
      "componentType": 5125,
      "count": 7488,
      "type": "SCALAR"
    }
  ],
  "asset": {
    "extras": {
      "author": "trimitek (https://sketchfab.com/trimitek)",
      "license": "SKETCHFAB Standard (https://sketchfab.com/licenses)",
      "source": "https://sketchfab.com/3d-models/alien-spaceship-big-fighter-f3ec4847aa014e27bfcc9f2c188c889a",
      "title": "Alien Spaceship - Big Fighter"
    },
    "generator": "Sketchfab-15.83.0",
    "version": "2.0"
  },
  "bufferViews": [
    {
      "buffer": 0,
      "byteLength": 646464,
      "name": "floatBufferViews",
      "target": 34963
    },
    {
      "buffer": 0,
      "byteLength": 944224,
      "byteOffset": 646464,
      "byteStride": 8,
      "name": "floatBufferViews",
      "target": 34962
    },
    {
      "buffer": 0,
      "byteLength": 728112,
      "byteOffset": 1590688,
      "byteStride": 12,
      "name": "floatBufferViews",
      "target": 34962
    }
  ],
  "buffers": [
    {
      "byteLength": 2318800,
      "uri": "scene.bin"
    }
  ],
  "extensionsUsed": [
    "KHR_materials_specular",
    "KHR_materials_emissive_strength"
  ],
  "images": [
    {
      "uri": "textures/ancient_procedural_stone_3_baseColor.jpeg"
    },
    {
      "uri": "textures/ancient_procedural_stone_3_metallicRoughness.png"
    },
    {
      "uri": "textures/ancient_procedural_stone_3_specularf0.png"
    },
    {
      "uri": "textures/black_glass_baseColor.jpeg"
    },
    {
      "uri": "textures/black_glass_metallicRoughness.png"
    },
    {
      "uri": "textures/black_glass_specularf0.png"
    },
    {
      "uri": "textures/engines_baseColor.jpeg"
    },
    {
      "uri": "textures/engines_metallicRoughness.png"
    },
    {
      "uri": "textures/engines_emissive.jpeg"
    },
    {
      "uri": "textures/engines_specularf0.png"
    },
    {
      "uri": "textures/pulse_baseColor.jpeg"
    },
    {
      "uri": "textures/pulse_metallicRoughness.png"
    },
    {
      "uri": "textures/pulse_emissive.jpeg"
    },
    {
      "uri": "textures/pulse_specularf0.png"
    }
  ],
  "materials": [
    {
      "doubleSided": true,
      "extensions": {
        "KHR_materials_specular": {
          "specularColorFactor": [
            1.0,
            1.0,
            1.0
          ],
          "specularFactor": 1.0,
          "specularTexture": {
            "index": 2
          }
        }
      },
      "name": "ancient_procedural_stone_3",
      "pbrMetallicRoughness": {
        "baseColorTexture": {
          "index": 0
        },
        "metallicRoughnessTexture": {
          "index": 1
        }
      }
    },
    {
      "doubleSided": true,
      "extensions": {
        "KHR_materials_specular": {
          "specularColorFactor": [
            1.0,
            1.0,
            1.0
          ],
          "specularFactor": 1.0,
          "specularTexture": {
            "index": 5
          }
        }
      },
      "name": "black_glass",
      "pbrMetallicRoughness": {
        "baseColorTexture": {
          "index": 3
        },
        "metallicRoughnessTexture": {
          "index": 4
        }
      }
    },
    {
      "doubleSided": true,
      "emissiveFactor": [
        1.0,
        1.0,
        1.0
      ],
      "emissiveTexture": {
        "index": 8
      },
      "extensions": {
        "KHR_materials_emissive_strength": {
          "emissiveStrength": 10.0
        },
        "KHR_materials_specular": {
          "specularColorFactor": [
            1.0,
            1.0,
            1.0
          ],
          "specularFactor": 1.0,
          "specularTexture": {
            "index": 9
          }
        }
      },
      "name": "engines",
      "pbrMetallicRoughness": {
        "baseColorTexture": {
          "index": 6
        },
        "metallicRoughnessTexture": {
          "index": 7
        }
      }
    },
    {
      "doubleSided": true,
      "emissiveFactor": [
        1.0,
        1.0,
        1.0
      ],
      "emissiveTexture": {
        "index": 12
      },
      "extensions": {
        "KHR_materials_emissive_strength": {
          "emissiveStrength": 10.0
        },
        "KHR_materials_specular": {
          "specularColorFactor": [
            1.0,
            1.0,
            1.0
          ],
          "specularFactor": 1.0,
          "specularTexture": {
            "index": 13
          }
        }
      },
      "name": "pulse",
      "pbrMetallicRoughness": {
        "baseColorTexture": {
          "index": 10
        },
        "metallicRoughnessTexture": {
          "index": 11
        }
      }
    }
  ],
  "meshes": [
    {
      "name": "alien battle fighter_ancient procedural stone 3_0",
      "primitives": [
        {
          "attributes": {
            "NORMAL": 1,
            "POSITION": 0,
            "TEXCOORD_0": 2,
            "TEXCOORD_1": 3,
            "TEXCOORD_2": 4,
            "TEXCOORD_3": 5
          },
          "indices": 6,
          "material": 0,
          "mode": 4
        }
      ]
    },
    {
      "name": "alien battle fighter_black glass_0",
      "primitives": [
        {
          "attributes": {
            "NORMAL": 8,
            "POSITION": 7,
            "TEXCOORD_0": 9,
            "TEXCOORD_1": 10,
            "TEXCOORD_2": 11
          },
          "indices": 12,
          "material": 1,
          "mode": 4
        }
      ]
    },
    {
      "name": "alien battle fighter_engines_0",
      "primitives": [
        {
          "attributes": {
            "NORMAL": 14,
            "POSITION": 13,
            "TEXCOORD_0": 15,
            "TEXCOORD_1": 16,
            "TEXCOORD_2": 17
          },
          "indices": 18,
          "material": 2,
          "mode": 4
        }
      ]
    },
    {
      "name": "alien battle fighter_pulse_0",
      "primitives": [
        {
          "attributes": {
            "NORMAL": 20,
            "POSITION": 19,
            "TEXCOORD_0": 21,
            "TEXCOORD_1": 22,
            "TEXCOORD_2": 23
          },
          "indices": 24,
          "material": 3,
          "mode": 4
        }
      ]
    }
  ],
  "nodes": [
    {
      "children": [
        1
      ],
      "matrix": [
        1.0,
        0.0,
        0.0,
        0.0,
        0.0,
        2.220446049250313e-16,
        -1.0,
        0.0,
        0.0,
        1.0,
        2.220446049250313e-16,
        0.0,
        0.0,
        0.0,
        0.0,
        1.0
      ],
      "name": "Sketchfab_model"
    },
    {
      "children": [
        2
      ],
      "matrix": [
        0.009999999776482582,
        0.0,
        0.0,
        0.0,
        0.0,
        0.0,
        0.009999999776482582,
        0.0,
        0.0,
        -0.009999999776482582,
        0.0,
        0.0,
        0.0,
        0.0,
        0.0,
        1.0
      ],
      "name": "ec8d2d30043547978988f9d4d265828f.fbx"
    },
    {
      "children": [
        3
      ],
      "name": "RootNode"
    },
    {
      "children": [
        4
      ],
      "matrix": [
        1.0,
        0.0,
        0.0,
        0.0,
        0.0,
        2.220446049250313e-16,
        -1.0,
        0.0,
        0.0,
        1.0,
        2.220446049250313e-16,
        0.0,
        0.0,
        132.08578491210938,
        0.0,
        1.0
      ],
      "name": "alien battle fighter"
    },
    {
      "children": [
        5,
        6,
        7,
        8
      ],
      "matrix": [
        1.0,
        0.0,
        -0.0,
        0.0,
        0.0,
        1.0,
        0.0,
        0.0,
        0.0,
        0.0,
        1.0,
        0.0,
        0.0,
        553.0535888671875,
        -132.08578491210938,
        1.0
      ],
      "name": "Object_4"
    },
    {
      "mesh": 0,
      "name": "alien battle fighter_ancient procedural stone 3_0"
    },
    {
      "mesh": 1,
      "name": "alien battle fighter_black glass_0"
    },
    {
      "mesh": 2,
      "name": "alien battle fighter_engines_0"
    },
    {
      "mesh": 3,
      "name": "alien battle fighter_pulse_0"
    }
  ],
  "samplers": [
    {
      "magFilter": 9729,
      "minFilter": 9987,
      "wrapS": 10497,
      "wrapT": 10497
    }
  ],
  "scene": 0,
  "scenes": [
    {
      "name": "Sketchfab_Scene",
      "nodes": [
        0
      ]
    }
  ],
  "textures": [
    {
      "sampler": 0,
      "source": 0
    },
    {
      "sampler": 0,
      "source": 1
    },
    {
      "sampler": 0,
      "source": 2
    },
    {
      "sampler": 0,
      "source": 3
    },
    {
      "sampler": 0,
      "source": 4
    },
    {
      "sampler": 0,
      "source": 5
    },
    {
      "sampler": 0,
      "source": 6
    },
    {
      "sampler": 0,
      "source": 7
    },
    {
      "sampler": 0,
      "source": 8
    },
    {
      "sampler": 0,
      "source": 9
    },
    {
      "sampler": 0,
      "source": 10
    },
    {
      "sampler": 0,
      "source": 11
    },
    {
      "sampler": 0,
      "source": 12
    },
    {
      "sampler": 0,
      "source": 13
    }
  ]
}
